<?xml version="1.0" encoding="utf-8"?>
<!-- Generator: Adobe Illustrator 25.2.0, SVG Export Plug-In . SVG Version: 6.00 Build 0)  -->
<svg version="1.1" id="Layer_1" xmlns="http://www.w3.org/2000/svg" xmlns:xlink="http://www.w3.org/1999/xlink" x="0px" y="0px"
	 viewBox="0 0 500 500" style="enable-background:new 0 0 500 500;" xml:space="preserve">
<style type="text/css">
	.st0{fill:#F0F0F0;}
	.st1{fill:#E0E0E0;}
	.st2{fill:#48CAE4;}
	.st3{opacity:0.15;enable-background:new    ;}
	.st4{fill:#FFFFFF;}
	.st5{fill:#EBEBEB;}
	.st6{opacity:0.9;fill:#27DEBF;enable-background:new    ;}
	.st7{opacity:0.9;fill:#00B4D8;enable-background:new    ;}
	.st8{fill:#00B4D8;}
	.st9{opacity:0.7;}
	.st10{fill:#90E0EF;}
	.st11{opacity:0.8;}
	.st12{opacity:0.2;fill:#27DEBF;enable-background:new    ;}
	.st13{fill:#455A64;}
	.st14{opacity:0.8;fill:#00B4D8;enable-background:new    ;}
	.st15{opacity:0.2;enable-background:new    ;}
	.st16{fill:#FAFAFA;}
	.st17{fill:#FFBDA7;}
	.st18{font-family:'ArialMT';}
	.st19{font-size:51.5244px;}
	.st20{font-size:8.5188px;}
	.st21{font-size:9.2255px;}
	.st22{opacity:0.1;}
	.st23{font-size:21.3132px;}
	.st24{opacity:0.8;fill:#48CAE4;enable-background:new    ;}
	.st25{font-size:24.8263px;}
	.st26{opacity:0.35;enable-background:new    ;}
	.st27{opacity:0.25;enable-background:new    ;}
	.st28{opacity:0.45;enable-background:new    ;}
	.st29{opacity:0.55;enable-background:new    ;}
	.st30{fill:#B16668;}
	.st31{fill:#263238;}
	.st32{fill:#9A4A4D;}
	.st33{opacity:0.1;enable-background:new    ;}
</style>
<g id="Floor">
	<ellipse id="Floor_1_" class="st0" cx="250" cy="357.4" rx="239.4" ry="126"/>
</g>
<g id="Shadows">
	<ellipse id="Shadow_12_" class="st1" cx="366.7" cy="383.1" rx="70.7" ry="40.8"/>
	<path id="Shadow_2_" class="st1" d="M42,388.4l4,2.3c1.3,0.7,3.3,0.7,4.6,0L292.6,251c1.3-0.7,1.3-1.9,0-2.7l-4-2.3
		c-1.3-0.7-3.3-0.7-4.6,0L42,385.7C40.7,386.4,40.7,387.6,42,388.4z"/>
</g>
<g id="Plants_2_">
	<g id="Plants_3_">
		<g id="XMLID_119_">
			<g id="XMLID_122_">
				<path id="XMLID_124_" class="st2" d="M398.3,347.2c0,0,0.1-17.6,5.4-31.9c5.3-14.2,14.6-24.4,24.7-27.5
					c10.1-3,20.8,7.3,11.2,16.2c-9.6,8.9-27.6,19.7-31.4,46L398.3,347.2z"/>
				<path id="XMLID_123_" class="st3" d="M398.3,347.2c0,0,0.1-17.6,5.4-31.9c5.3-14.2,14.6-24.4,24.7-27.5
					c10.1-3,20.8,7.3,11.2,16.2c-9.6,8.9-27.6,19.7-31.4,46L398.3,347.2z"/>
			</g>
			<g id="XMLID_120_">
				<path id="XMLID_121_" class="st4" d="M402.5,344.5c0,0-0.1,0-0.1,0c-0.3,0-0.5-0.3-0.5-0.7c4.2-30.4,22.5-47.4,31.7-52.1
					c0.3-0.1,0.6,0,0.8,0.2c0.1,0.3,0,0.6-0.2,0.8c-9,4.6-27,21.2-31.1,51.2C403,344.3,402.8,344.5,402.5,344.5z"/>
			</g>
		</g>
		<g id="XMLID_111_">
			<g id="XMLID_116_">
				<g id="XMLID_117_">
					<path id="XMLID_118_" class="st2" d="M397.5,364.1c0.2-2.5,0-4.7-0.5-7.1c-0.6-2.5-2.1-4.9-2.2-7.5c-0.1-2.1,1.2-4.4,2.7-5.8
						c1.5-1.5,3.5-2.5,4.6-4.3c1-1.9,0.8-4.2,1.3-6.3c0.5-2.3,2-4.4,4-5.6c2-1.3,4.5-1.7,6.8-1.2c2.2,0.5,4.1,1.7,6.1,2.6
						c2.1,1,4.2,1.6,6.5,1.3c2.5-0.4,4.9-0.8,7.4-0.8c4.2,0,9.6,1.4,11,5.9c0.4,1.1,0.5,2.3,0.1,3.4c0,0,0,0.1,0,0.1
						c-1.2,3-5.1,3.6-7.6,5.1c-0.7,0.4-1.8,1-2.1,1.8s0.5,2,0.8,2.7c0.9,2,2.2,3.8,2.3,6.1c0.2,3.2-2.5,6.2-5.2,7.6
						c-2.6,1.3-5.5,1.6-8.4,1.5c-1.4-0.1-3-0.2-4.1,0.6c-1,0.7-1.5,2-1.6,3.2c-0.1,1.2,0,2.5-0.1,3.7c-0.4,3.9-3.2,7.4-6.8,8.8
						c-3,1.2-6.5,1.1-9.5-0.1c-2.5-1-4.6-4-5.1-6.6C397.2,370.3,397.2,367,397.5,364.1z"/>
				</g>
			</g>
			<g id="XMLID_114_">
				<path id="XMLID_115_" class="st4" d="M398.5,371.3C398.5,371.3,398.5,371.3,398.5,371.3c-0.3,0-0.5-0.3-0.4-0.5
					c4.1-29.3,33.5-37,40.5-37.4c0.3,0,0.5,0.2,0.5,0.5c0,0.3-0.2,0.5-0.5,0.5c-6.9,0.3-35.6,7.9-39.6,36.5
					C398.9,371.2,398.7,371.4,398.5,371.3z"/>
			</g>
			<g id="XMLID_112_">
				<path id="XMLID_113_" class="st4" d="M429.9,352.9c-0.1,0-0.2,0-0.3-0.1c-0.1-0.1-8.6-6.6-21-3.2c-0.2,0.1-0.5-0.1-0.6-0.3
					c-0.1-0.2,0.1-0.5,0.3-0.6c12.9-3.5,21.8,3.4,21.9,3.4c0.2,0.2,0.2,0.5,0.1,0.7C430.2,352.9,430.1,352.9,429.9,352.9z"/>
			</g>
		</g>
	</g>
</g>
<g id="Clouds">
	<g id="Clouds_3_">
		<g>
			<g id="XMLID_46_">
				<path class="st5" d="M93.9,77.7l-3.4,2v-9.2c0-9.5-5-13-11.2-9.5l0,0C73,64.5,67.5,71.6,67,81.2l-0.1,1.8c-1.3-1-3.1-1.1-5.1,0
					l0,0c-7,3.6-8.5,10.2-8.8,17.1l0,0.8l-5.8,3.3c-3,1.7-5.6,6.6-5.8,11.2s2,7.2,5,5.5l46.7-27c3-1.7,5.6-6.4,5.8-10.9
					C99.1,78.4,96.9,76,93.9,77.7z"/>
			</g>
			<g id="XMLID_37_">
				<path class="st5" d="M149.1,91.3l-6.6,3.8c0.1-0.4,0.1-0.9,0.1-1.2l0.1-2.5c0.2-4.5-2-6.8-4.9-5.2c-1.2,0.7-2.3,1.9-3.3,3.4
					c-0.2-5.8-3.3-8.6-7.4-6.3c-4.4,2.5-8.3,10-8.6,16.8c0,0,0,2.6,0,3.7c0,1.1,0,3,0.2,4.6l-5.5,3.2c-1.6,0.9-3.1,3.6-3.2,6.1
					s1.1,4,2.7,3.1l35.9-20.7c1.6-0.9,3.1-3.4,3.2-6C152,91.7,150.8,90.4,149.1,91.3z"/>
			</g>
		</g>
	</g>
</g>
<g id="Screen">
	<g id="Weather">
		<path class="st6" d="M36.7,195.3v13.6v140.4c0,1.2,0.3,2.3,0.7,3.2c0.2,0.5,0.5,0.9,0.8,1.2c0.3,0.4,0.5,0.5,1,0.8
			c0.1,0.1,7.6,4.4,7.8,4.5c-0.1,0-0.3-0.2-0.8-0.6c-0.5-0.4-0.8-1-1.1-1.6c-0.4-0.9-0.6-1.9-0.6-3.1V213.5v-13.8
			c0-1.8,0.6-3.8,1.6-5.6l-7.8-4.5C37.3,191.5,36.7,193.5,36.7,195.3z"/>
		<path class="st7" d="M36.7,195.3v13.6v140.4c0,1.2,0.3,2.3,0.7,3.2c0.2,0.5,0.5,0.9,0.8,1.2c0.3,0.4,0.5,0.5,1,0.8
			c0.1,0.1,7.6,4.4,7.8,4.5c-0.1,0-0.3-0.2-0.8-0.6c-0.5-0.4-0.8-1-1.1-1.6c-0.4-0.9-0.6-1.9-0.6-3.1V213.5v-13.8
			c0-1.8,0.6-3.8,1.6-5.6l-7.8-4.5C37.3,191.5,36.7,193.5,36.7,195.3z"/>
		<path id="XMLID_13_" class="st8" d="M295.2,55.1v155.6c0,3.9-2.8,8.6-6.1,10.6L50.6,359c-0.7,0.4-1.4,0.6-2,0.6
			c-0.3,0-0.5,0-0.8-0.1c-0.2,0-0.4-0.1-0.5-0.2c-0.1-0.1-0.2-0.1-0.3-0.2c-0.1-0.1-0.2-0.2-0.4-0.2c-0.1-0.1-0.2-0.2-0.3-0.3
			c-0.5-0.4-0.8-1-1.1-1.6c-0.4-0.9-0.6-2-0.6-3.1V199.7c0-3.9,2.8-8.6,6.1-10.6L289.1,51.5c1.6-0.9,3-1,4.1-0.5
			c0.2,0.1,0.4,0.2,0.5,0.3c0,0,0,0,0,0c0.2,0.1,0.3,0.2,0.4,0.4c0.1,0.1,0.1,0.1,0.2,0.2c0.1,0.1,0.2,0.2,0.2,0.3
			c0.2,0.2,0.3,0.5,0.4,0.8c0.1,0.2,0.1,0.3,0.1,0.5c0,0,0,0.1,0,0.1c0.1,0.2,0.1,0.4,0.1,0.6C295.2,54.5,295.2,54.8,295.2,55.1z"/>
		<g id="XMLID_398_" class="st9">
			<path class="st4" d="M295.9,54.9v155.6c0,3.9-2.8,8.6-6.1,10.6L51.3,358.8c-0.7,0.4-1.4,0.6-2,0.6c-0.3,0-0.5,0-0.8-0.1
				c-0.2,0-0.4-0.1-0.5-0.2c-0.1-0.1-0.2-0.1-0.3-0.2c-0.1-0.1-0.2-0.2-0.4-0.2c-0.1-0.1-0.2-0.2-0.3-0.3c-0.5-0.4-0.8-1-1.1-1.6
				c-0.4-0.9-0.6-2-0.6-3.1V199.6c0-3.9,2.8-8.6,6.1-10.6L289.8,51.4c1.6-0.9,3-1,4.1-0.5c0.2,0.1,0.4,0.2,0.5,0.3c0,0,0,0,0,0
				c0.2,0.1,0.3,0.2,0.4,0.4c0.1,0.1,0.1,0.1,0.2,0.2c0.1,0.1,0.2,0.2,0.2,0.3c0.2,0.2,0.3,0.5,0.4,0.8c0.1,0.2,0.1,0.3,0.1,0.5
				c0,0,0,0.1,0,0.1c0.1,0.2,0.1,0.4,0.1,0.6C295.9,54.4,295.9,54.7,295.9,54.9z"/>
		</g>
		<path class="st10" d="M285.7,46.8c-1.1-0.7-2.7-0.7-4.4,0.4L42.8,184.7c-0.4,0.2-0.9,0.6-1.3,0.9c-0.1,0.1-0.1,0.1-0.2,0.2
			c-0.3,0.3-0.7,0.6-1,1c0,0,0,0.1-0.1,0.1c-0.7,0.8-1.4,1.8-1.9,2.8l0,0l7.8,4.5c0.5-1,1.2-2,1.9-2.8c0,0,0.1-0.1,0.1-0.1
			c0.3-0.4,0.7-0.7,1-1c0.1-0.1,0.1-0.1,0.2-0.2c0.4-0.3,0.8-0.6,1.3-0.9c0,0,0,0,0,0L289.1,51.5c1.6-0.9,3-1,4.1-0.5
			C291.9,50.3,286.8,47.4,285.7,46.8z"/>
		<g class="st11">
			<path class="st4" d="M285.7,46.7c-1.1-0.7-2.7-0.7-4.4,0.4L42.8,184.7c-0.4,0.2-0.9,0.6-1.3,0.9c-0.1,0.1-0.1,0.1-0.2,0.2
				c-0.3,0.3-0.7,0.6-1,1c0,0,0,0.1-0.1,0.1c-0.7,0.8-1.4,1.8-1.9,2.8l0,0l7.8,4.5c0.5-1,1.2-2,1.9-2.8c0,0,0.1-0.1,0.1-0.1
				c0.3-0.4,0.7-0.7,1-1c0.1-0.1,0.1-0.1,0.2-0.2c0.4-0.3,0.8-0.6,1.3-0.9c0,0,0,0,0,0L289.1,51.5c1.6-0.9,3-1,4.1-0.5
				C291.9,50.3,286.8,47.4,285.7,46.7z"/>
		</g>
		<path class="st12" d="M38.3,189.6L38.3,189.6L38.3,189.6z"/>
		<g>
			<g id="XMLID_3521_">
				<path id="XMLID_3522_" class="st13" d="M59.6,195L59.6,195C59.6,195,59.6,195,59.6,195c-0.8-0.4-1.7-0.4-2.7,0.2
					c-1.6,0.9-2.9,2.8-3.6,4.8c-0.2,0.8-0.4,1.2-0.4,2v0.6c0,2.1,2.3,4.9,3.4,5.9c0,0,0,0,0.1,0.1c0,0,0,0,0,0
					c0.3,0.2,0.6,0.1,0.8-0.2c0.9-1.9,3.7-7.6,3.7-9.9v-0.6C60.8,196.5,60.4,195.5,59.6,195z M55.4,201.6c0,0,0-0.1,0-0.1
					c0-0.1,0-0.2,0-0.4c0-1.1,0.8-2.6,1.8-3.1c0.1-0.1,0.2-0.1,0.3-0.2c0.1,0,0.2-0.1,0.3-0.1c0.7-0.1,1.2,0.4,1.2,1.3
					c0,1.1-0.8,2.6-1.8,3.1C56.3,202.7,55.6,202.4,55.4,201.6z"/>
			</g>
			<path class="st14" d="M64.8,195.7c0,1.1,0.8,1.4,1.8,0.9l16.2-9.4c1-0.6,1.8-1.9,1.8-2.9c0-1.1-0.8-1.4-1.8-0.9l-16.2,9.4
				C65.6,193.3,64.8,194.6,64.8,195.7z"/>
			<path class="st15" d="M64.8,195.7c0,1.1,0.8,1.4,1.8,0.9l16.2-9.4c1-0.6,1.8-1.9,1.8-2.9c0-1.1-0.8-1.4-1.8-0.9l-16.2,9.4
				C65.6,193.3,64.8,194.6,64.8,195.7z"/>
			<path class="st8" d="M65.8,200.1l12.4-7.2c0.6-0.3,1.1-0.1,1.1,0.5s-0.5,1.4-1.1,1.7l-12.4,7.2c-0.6,0.3-1.1,0.1-1.1-0.5
				S65.3,200.5,65.8,200.1z"/>
			<g>
				<path id="XMLID_291_" class="st16" d="M136.1,245.1l-2.5,1.4v-5.8c0-4.3-3.4-5.3-7.1-3.1l0,0c-3.7,2.2-6.7,7.4-6.7,11.7v0.8
					c-0.8-0.3-1.9-0.2-3.1,0.5l0,0c-2.7,1.6-4.8,5.3-4.8,8.4v0.4l-3.4,2c-1.8,1-3.2,3.5-3.2,5.5c0,2,1.4,2.9,3.2,1.8l27.7-16.1
					c1.8-1,3.2-3.5,3.2-5.5C139.2,244.9,137.8,244.1,136.1,245.1z"/>
				<path class="st17" d="M121.6,240.3c-1.8,2.5-2.9,5.5-3,8.3c-0.8,0-1.8,0.2-2.7,0.8c-1.8,1-3.3,2.8-4.2,4.9
					c-1.9-0.3-3.1-1.9-3.1-4.7c0-4.2,3-9.3,6.6-11.4C118.3,236.4,120.9,237.4,121.6,240.3z"/>
			</g>
			<text transform="matrix(0.6495 -0.375 0 1 56.7446 256.6967)" class="st13 st18 st19">24°C</text>
			<g>
				<path class="st8" d="M53,268.2c-0.2,0-0.4-0.1-0.5-0.3c-0.2-0.2-0.1-0.6,0.2-0.7l90.8-52.4c0.2-0.1,0.6-0.1,0.7,0.2
					s0.1,0.6-0.2,0.7l-90.8,52.4C53.2,268.2,53.1,268.2,53,268.2z"/>
			</g>
			<text transform="matrix(0.6495 -0.375 0 1 78.9787 267.7014)" class="st13 st18 st20">27°C</text>
			<text transform="matrix(0.6495 -0.375 0 1 78.9795 282.6833)" class="st13 st18 st20">11°C</text>
			<g>
				<text transform="matrix(0.6495 -0.375 0 1 80.4164 300.6213)" class="st13 st18 st21">75%</text>
			</g>
			<g>
				<text transform="matrix(0.6495 -0.375 0 1 112.4557 282.0623)" class="st13 st18 st21">15 km/h</text>
			</g>
			<g>
				<text transform="matrix(0.6495 -0.375 0 1 61.6769 277.6898)" class="st13 st18 st20">MAX</text>
			</g>
			<g>
				<text transform="matrix(0.6495 -0.375 0 1 61.6769 292.6723)" class="st13 st18 st20">MIN</text>
			</g>
			<g>
				<g>
					<path id="XMLID_269_" class="st8" d="M74.4,299.9l-1,0.6v-2.4c0-1.8-1.4-2.2-2.9-1.3l0,0c-1.5,0.9-2.8,3-2.8,4.8v0.3
						c-0.3-0.1-0.8-0.1-1.3,0.2l0,0c-1.1,0.6-2,2.2-2,3.5v0.1l-1.4,0.8c-0.7,0.4-1.3,1.4-1.3,2.3s0.6,1.2,1.3,0.8l11.4-6.6
						c0.7-0.4,1.3-1.4,1.3-2.3C75.7,299.8,75.1,299.5,74.4,299.9z"/>
					<g>
						<g id="XMLID_344_">
							<g>
								<path id="XMLID_55_" class="st8" d="M65.6,311.8L65.6,311.8C65.6,311.8,65.6,311.8,65.6,311.8c0.1,0.1,0.3,0.1,0.4,0
									c0.2-0.1,0.4-0.5,0.5-0.9c0-0.1,0.1-0.2,0.1-0.4v-0.1c0-0.4-0.3-1-0.5-1.3c0,0,0,0,0,0l0,0c0,0-0.1,0-0.1,0
									c-0.1,0.4-0.6,1.4-0.6,1.9v0.1C65.4,311.4,65.5,311.6,65.6,311.8z"/>
							</g>
						</g>
						<g id="XMLID_373_">
							<g>
								<path id="XMLID_61_" class="st8" d="M69.2,309.7L69.2,309.7C69.2,309.7,69.2,309.7,69.2,309.7c0.1,0.1,0.3,0.1,0.4,0
									c0.2-0.1,0.4-0.5,0.5-0.9c0-0.1,0.1-0.2,0.1-0.4v-0.1c0-0.4-0.3-1-0.5-1.3c0,0,0,0,0,0l0,0c0,0-0.1,0-0.1,0
									c-0.1,0.4-0.6,1.4-0.6,1.9v0.1C69,309.4,69,309.6,69.2,309.7z"/>
							</g>
						</g>
						<g id="XMLID_488_">
							<g>
								<path id="XMLID_53_" class="st8" d="M72.7,307.7L72.7,307.7C72.7,307.7,72.7,307.7,72.7,307.7c0.1,0.1,0.3,0.1,0.4,0
									c0.2-0.1,0.4-0.5,0.5-0.9c0-0.1,0.1-0.2,0.1-0.4v-0.1c0-0.4-0.3-1-0.5-1.3c0,0,0,0,0,0l0,0c0,0-0.1,0-0.1,0
									c-0.1,0.4-0.6,1.4-0.6,1.9v0.1C72.5,307.4,72.6,307.6,72.7,307.7z"/>
							</g>
						</g>
					</g>
				</g>
				<g class="st22">
					<path id="XMLID_903_" d="M74.4,299.9l-1,0.6v-2.4c0-1.8-1.4-2.2-2.9-1.3l0,0c-1.5,0.9-2.8,3-2.8,4.8v0.3
						c-0.3-0.1-0.8-0.1-1.3,0.2l0,0c-1.1,0.6-2,2.2-2,3.5v0.1l-1.4,0.8c-0.7,0.4-1.3,1.4-1.3,2.3s0.6,1.2,1.3,0.8l11.4-6.6
						c0.7-0.4,1.3-1.4,1.3-2.3C75.7,299.8,75.1,299.5,74.4,299.9z"/>
					<g>
						<g id="XMLID_712_">
							<g>
								<path id="XMLID_43_" d="M65.6,311.8L65.6,311.8C65.6,311.8,65.6,311.8,65.6,311.8c0.1,0.1,0.3,0.1,0.4,0
									c0.2-0.1,0.4-0.5,0.5-0.9c0-0.1,0.1-0.2,0.1-0.4v-0.1c0-0.4-0.3-1-0.5-1.3c0,0,0,0,0,0l0,0c0,0-0.1,0-0.1,0
									c-0.1,0.4-0.6,1.4-0.6,1.9v0.1C65.4,311.4,65.5,311.6,65.6,311.8z"/>
							</g>
						</g>
						<g id="XMLID_592_">
							<g>
								<path id="XMLID_40_" d="M69.2,309.7L69.2,309.7C69.2,309.7,69.2,309.7,69.2,309.7c0.1,0.1,0.3,0.1,0.4,0
									c0.2-0.1,0.4-0.5,0.5-0.9c0-0.1,0.1-0.2,0.1-0.4v-0.1c0-0.4-0.3-1-0.5-1.3c0,0,0,0,0,0l0,0c0,0-0.1,0-0.1,0
									c-0.1,0.4-0.6,1.4-0.6,1.9v0.1C69,309.4,69,309.6,69.2,309.7z"/>
							</g>
						</g>
						<g id="XMLID_434_">
							<g>
								<path id="XMLID_36_" d="M72.7,307.7L72.7,307.7C72.7,307.7,72.7,307.7,72.7,307.7c0.1,0.1,0.3,0.1,0.4,0
									c0.2-0.1,0.4-0.5,0.5-0.9c0-0.1,0.1-0.2,0.1-0.4v-0.1c0-0.4-0.3-1-0.5-1.3c0,0,0,0,0,0l0,0c0,0-0.1,0-0.1,0
									c-0.1,0.4-0.6,1.4-0.6,1.9v0.1C72.5,307.4,72.6,307.6,72.7,307.7z"/>
							</g>
						</g>
					</g>
				</g>
			</g>
			<g>
				<g>
					<g>
						<path class="st8" d="M102.2,288.5c-0.4,0-0.8-0.1-1.1-0.3c-0.8-0.5-1.2-1.4-1.2-2.7c0-2.4,1.7-5.4,3.8-6.6
							c1.1-0.6,2.1-0.7,2.9-0.2c0.8,0.5,1.2,1.4,1.2,2.7c0,2.4-1.7,5.4-3.8,6.6C103.3,288.3,102.7,288.5,102.2,288.5z M105.4,279.1
							c-0.4,0-0.9,0.1-1.4,0.4l0,0c-1.9,1.1-3.4,3.8-3.4,5.9c0,1,0.3,1.7,0.9,2c0.6,0.3,1.3,0.2,2.2-0.2c1.9-1.1,3.4-3.8,3.4-5.9
							c0-1-0.3-1.7-0.9-2C105.9,279.2,105.7,279.1,105.4,279.1z M103.8,279.3L103.8,279.3L103.8,279.3z"/>
					</g>
					<g>
						<path class="st8" d="M101.3,284.6l3.7-4.3c0.2-0.2,0.5,0,0.4,0.2l-1.6,5.9l-0.5-2.4L101.3,284.6z"/>
					</g>
					<g>
						<path class="st8" d="M103.8,278.2c-0.2,0-0.4-0.2-0.4-0.4v-1.4c0-0.2,0.2-0.4,0.4-0.4s0.4,0.2,0.4,0.4v1.4
							C104.2,278,104,278.2,103.8,278.2z"/>
					</g>
					<g>
						<path class="st8" d="M103.8,290.7c-0.2,0-0.4-0.2-0.4-0.4V289c0-0.2,0.2-0.4,0.4-0.4s0.4,0.2,0.4,0.4v1.4
							C104.2,290.6,104,290.7,103.8,290.7z"/>
					</g>
					<g>
						<path class="st8" d="M108.6,281c-0.1,0-0.2-0.1-0.3-0.2c-0.1-0.2,0-0.4,0.1-0.5l1.2-0.7c0.2-0.1,0.4,0,0.5,0.1
							c0.1,0.2,0,0.4-0.1,0.5l-1.2,0.7C108.8,281,108.7,281,108.6,281z"/>
					</g>
					<g>
						<path class="st8" d="M97.8,287.3c-0.1,0-0.2-0.1-0.3-0.2c-0.1-0.2,0-0.4,0.1-0.5l1.2-0.7c0.2-0.1,0.4,0,0.5,0.1
							c0.1,0.2,0,0.4-0.1,0.5l-1.2,0.7C97.9,287.2,97.8,287.3,97.8,287.3z"/>
					</g>
				</g>
				<g class="st22">
					<g>
						<g>
							<path d="M102.2,288.5c-0.4,0-0.8-0.1-1.1-0.3c-0.8-0.5-1.2-1.4-1.2-2.7c0-2.4,1.7-5.4,3.8-6.6c1.1-0.6,2.1-0.7,2.9-0.2
								c0.8,0.5,1.2,1.4,1.2,2.7c0,2.4-1.7,5.4-3.8,6.6C103.4,288.3,102.7,288.5,102.2,288.5z M105.4,279.1c-0.4,0-0.9,0.1-1.4,0.4
								l0,0c-1.9,1.1-3.4,3.8-3.4,5.9c0,1,0.3,1.7,0.9,2c0.6,0.3,1.3,0.2,2.2-0.2c1.9-1.1,3.4-3.8,3.4-5.9c0-1-0.3-1.7-0.9-2
								C105.9,279.2,105.7,279.1,105.4,279.1z M103.8,279.3L103.8,279.3L103.8,279.3z"/>
						</g>
						<g>
							<path d="M101.3,284.6l3.7-4.3c0.2-0.2,0.5,0,0.4,0.2l-1.6,5.9l-0.5-2.4L101.3,284.6z"/>
						</g>
						<g>
							<path d="M103.8,278.2c-0.2,0-0.4-0.2-0.4-0.4v-1.4c0-0.2,0.2-0.4,0.4-0.4s0.4,0.2,0.4,0.4v1.4
								C104.2,278,104,278.2,103.8,278.2z"/>
						</g>
						<g>
							<path d="M103.8,290.7c-0.2,0-0.4-0.2-0.4-0.4V289c0-0.2,0.2-0.4,0.4-0.4s0.4,0.2,0.4,0.4v1.4
								C104.2,290.6,104,290.7,103.8,290.7z"/>
						</g>
						<g>
							<path d="M108.6,281c-0.1,0-0.2-0.1-0.3-0.2c-0.1-0.2,0-0.4,0.1-0.5l1.2-0.7c0.2-0.1,0.4,0,0.5,0.1c0.1,0.2,0,0.4-0.1,0.5
								l-1.2,0.7C108.8,281,108.7,281,108.6,281z"/>
						</g>
						<g>
							<path d="M97.8,287.3c-0.1,0-0.2-0.1-0.3-0.2c-0.1-0.2,0-0.4,0.1-0.5l1.2-0.7c0.2-0.1,0.4,0,0.5,0.1c0.1,0.2,0,0.4-0.1,0.5
								l-1.2,0.7C97.9,287.2,97.8,287.3,97.8,287.3z"/>
						</g>
					</g>
				</g>
			</g>
			<g>
				<text transform="matrix(0.4871 -0.2812 0 1 57.3538 340.1212)" class="st13 st18 st23">FRIDAY</text>
			</g>
		</g>
		<g>
			<path class="st24" d="M157.1,287.5l29.7-17.1c2.6-1.5,4.6-5,4.6-8V123.2c0-2.9-2.1-4.1-4.6-2.7l-29.7,17.1
				c-2.6,1.5-4.6,5.1-4.6,8v139.2C152.5,287.8,154.5,289,157.1,287.5z"/>
			<text transform="matrix(0.6495 -0.375 0 1 172.7929 238.5088)" class="st13 st18 st20">27°C</text>
			<text transform="matrix(0.6495 -0.375 0 1 172.7937 253.4907)" class="st13 st18 st20">11°C</text>
			<g>
				<text transform="matrix(0.6495 -0.375 0 1 158.1839 246.9445)" class="st13 st18 st20">MAX</text>
			</g>
			<g>
				<text transform="matrix(0.6495 -0.375 0 1 158.1839 261.9289)" class="st13 st18 st20">MIN</text>
			</g>
			<g>
				<g>
					<g id="XMLID_146_">
						<path class="st16" d="M184.2,188.9l-2.2,1.2V185c0-3.8-3-4.7-6.3-2.8l0,0c-3.3,1.9-6,6.6-6,10.4v0.7c-0.8-0.3-1.7-0.2-2.8,0.4
							l0,0c-2.4,1.4-4.3,4.7-4.3,7.5v0.3l-3,1.8c-1.6,0.9-2.8,3.1-2.8,4.9s1.3,2.5,2.8,1.6l24.6-14.3c1.6-0.9,2.8-3.1,2.8-4.9
							C187.1,188.8,185.8,188,184.2,188.9z"/>
					</g>
					<g>
						<g id="XMLID_142_">
							<g>
								<path id="XMLID_143_" class="st16" d="M165.4,214.5L165.4,214.5C165.4,214.5,165.4,214.5,165.4,214.5
									c0.2,0.2,0.6,0.3,0.9,0.1c0.5-0.3,0.9-1,1.2-1.9c0.1-0.3,0.1-0.5,0.1-0.8v-0.3c0-0.9-0.8-2.2-1.1-2.8c0,0,0,0,0,0l0,0
									c-0.1-0.1-0.2-0.1-0.2,0.1c-0.3,0.8-1.2,3.1-1.2,4.1v0.3C164.9,213.8,165.1,214.3,165.4,214.5z"/>
							</g>
						</g>
						<g id="XMLID_138_">
							<g>
								<path id="XMLID_139_" class="st16" d="M173,210.1L173,210.1C173,210.1,173,210.1,173,210.1c0.2,0.2,0.6,0.3,0.9,0.1
									c0.5-0.3,0.9-1,1.2-1.9c0.1-0.3,0.1-0.5,0.1-0.8v-0.3c0-0.9-0.8-2.2-1.1-2.8c0,0,0,0,0,0l0,0c-0.1-0.1-0.2-0.1-0.2,0.1
									c-0.3,0.8-1.2,3.1-1.2,4.1v0.3C172.6,209.4,172.7,209.9,173,210.1z"/>
							</g>
						</g>
						<g id="XMLID_134_">
							<g>
								<path id="XMLID_135_" class="st16" d="M180.6,205.7L180.6,205.7C180.6,205.7,180.6,205.7,180.6,205.7
									c0.2,0.2,0.6,0.3,0.9,0.1c0.5-0.3,0.9-1,1.2-1.9c0.1-0.3,0.1-0.5,0.1-0.8v-0.3c0-0.9-0.8-2.2-1.1-2.8c0,0,0,0,0,0l0,0
									c-0.1-0.1-0.2-0.1-0.2,0.1c-0.3,0.8-1.2,3.1-1.2,4.1v0.3C180.2,205,180.4,205.4,180.6,205.7z"/>
							</g>
						</g>
					</g>
				</g>
			</g>
			<g>
				<text transform="matrix(0.4871 -0.2812 0 1 159.4779 176.2554)" class="st13 st18 st25">SAT</text>
			</g>
		</g>
		<g>
			<path class="st24" d="M204.7,260l29.7-17.1c2.6-1.5,4.6-5.1,4.6-8V95.7c0-2.9-2.1-4.1-4.6-2.7l-29.7,17.2c-2.6,1.5-4.6,5.1-4.6,8
				v139.2C200.1,260.3,202.1,261.5,204.7,260z"/>
			<text transform="matrix(0.6495 -0.375 0 1 220.374 211.0292)" class="st13 st18 st20">27°C</text>
			<text transform="matrix(0.6495 -0.375 0 1 220.3749 226.013)" class="st13 st18 st20">11°C</text>
			<g>
				<text transform="matrix(0.6495 -0.375 0 1 205.7659 219.4654)" class="st13 st18 st20">MAX</text>
			</g>
			<g>
				<text transform="matrix(0.6495 -0.375 0 1 205.7659 234.4498)" class="st13 st18 st20">MIN</text>
			</g>
			<g>
				<g>
					<g id="XMLID_10_">
						<path class="st16" d="M231.8,166.4l-2.2,1.2v-5.2c0-3.8-3-4.7-6.3-2.8l0,0c-3.3,1.9-6,6.6-6,10.4v0.7
							c-0.8-0.3-1.7-0.2-2.8,0.4l0,0c-2.4,1.4-4.3,4.7-4.3,7.5v0.3l-3,1.8c-1.6,0.9-2.8,3.1-2.8,4.9s1.3,2.5,2.8,1.6l24.6-14.3
							c1.6-0.9,2.8-3.1,2.8-4.9C234.6,166.3,233.4,165.6,231.8,166.4z"/>
					</g>
				</g>
			</g>
			<g>
				<text transform="matrix(0.4871 -0.2812 0 1 205.7471 149.5122)" class="st13 st18 st25">SUN</text>
			</g>
			<path class="st17" d="M219.2,162.2c-1.6,2.2-2.6,5-2.7,7.5c-0.8,0-1.6,0.2-2.4,0.7c-1.6,0.9-2.9,2.6-3.8,4.4
				c-1.7-0.2-2.8-1.7-2.8-4.2c0-3.8,2.7-8.4,6-10.3C216.2,158.7,218.6,159.5,219.2,162.2z"/>
		</g>
		<g>
			<path class="st24" d="M252.2,232.6l29.7-17.1c2.5-1.5,4.6-5.1,4.6-8V68.2c0-2.9-2.1-4.1-4.6-2.7l-29.7,17.2
				c-2.6,1.5-4.6,5.1-4.6,8v139.2C247.6,232.9,249.7,234.1,252.2,232.6z"/>
			<text transform="matrix(0.6495 -0.375 0 1 267.9552 183.5525)" class="st13 st18 st20">27°C</text>
			<text transform="matrix(0.6495 -0.375 0 1 267.956 198.5344)" class="st13 st18 st20">11°C</text>
			<g>
				<text transform="matrix(0.6495 -0.375 0 1 253.3462 191.9892)" class="st13 st18 st20">MAX</text>
			</g>
			<g>
				<text transform="matrix(0.6495 -0.375 0 1 253.3462 206.9726)" class="st13 st18 st20">MIN</text>
			</g>
			<g>
				<text transform="matrix(0.4871 -0.2812 0 1 252.4451 122.6543)" class="st13 st18 st25">MON</text>
			</g>
			<path class="st17" d="M267.1,132.8c4.8-2.8,8.6-0.5,8.6,5c0,5.5-3.9,12.2-8.6,15c-4.8,2.8-8.6,0.5-8.6-5
				C258.4,142.3,262.3,135.6,267.1,132.8z"/>
		</g>
	</g>
</g>
<g id="Character">
	<g id="Character_8_">
		<g id="XMLID_1260_">
			<path id="XMLID_1273_" class="st2" d="M316.5,87.6c8.6,1.6,16.8,8.9,21.3,16.6c17.5-0.9,39.5,5.1,60,15.4l15.4-60
				C379.8,53.4,347.2,59,316.5,87.6z"/>
			<path id="XMLID_1272_" class="st26" d="M337.8,104.2c17.5-0.9,39.5,5.1,60,15.4l15.4-60C390.1,58.6,357.4,75.3,337.8,104.2z"/>
			<path id="XMLID_1265_" class="st27" d="M316.5,87.6c30.7-28.7,63.3-34.2,96.8-27.9c-23.1-1.2-55.9,15.6-75.5,44.5
				C333.3,96.5,325.1,89.3,316.5,87.6z"/>
			<path id="XMLID_1264_" class="st2" d="M484.6,130.9c-8.3-2.7-19-0.3-26.7,4.2c-14.9-9.2-37.1-14.6-60-15.4l15.4-60
				C445.7,70.4,471.5,90.9,484.6,130.9z"/>
			<path id="XMLID_1262_" class="st28" d="M457.9,135.1c-14.9-9.2-37.1-14.6-60-15.4l15.4-60C434.1,69.9,454.7,100.3,457.9,135.1z"
				/>
			<path id="XMLID_1261_" class="st29" d="M484.6,130.9c-13.1-40-38.9-60.5-71.3-71.2c20.8,10.2,41.4,40.6,44.6,75.4
				C465.6,130.6,476.3,128.2,484.6,130.9z"/>
		</g>
		<g id="XMLID_1092_">
			<path id="XMLID_1093_" class="st13" d="M409.9,72.8c0,0,0.1,0,0.4,0c0.1,0,0.3,0,0.5,0c0.1,0,0.3,0,0.5,0c0.7,0,0.5-0.4,0.6-0.7
				c0.2-0.7,0.4-1.7,0.7-2.8c0.6-2.3,1.3-5.5,1.9-8.7c0.3-1.6,0.6-3.2,0.8-4.7c0.1-0.8,0.2-1.5,0.3-2.2c0.1-0.7,0.2-1.3,0.3-1.9
				c0.1-0.6,0.1-1.2,0.2-1.7s0.1-0.9,0.1-1.3c0.1-0.7,0.1-1.1,0.1-1.1s-0.2,0.4-0.5,1c-0.1,0.3-0.3,0.7-0.5,1.2
				c-0.2,0.5-0.4,1-0.6,1.5s-0.5,1.2-0.7,1.8c-0.3,0.7-0.5,1.3-0.8,2c-0.5,1.4-1,3-1.5,4.5c-1,3.1-1.9,6.2-2.5,8.5
				c-0.3,1.2-0.6,2.1-0.8,2.8c0,0.3-0.4,0.6,0.2,0.9c0.1,0.1,0.3,0.2,0.4,0.2c0.2,0.1,0.3,0.2,0.5,0.2
				C409.8,72.7,409.9,72.8,409.9,72.8z"/>
		</g>
		<g id="Character_3_">
			<g>
				<path id="XMLID_1407_" class="st30" d="M356.6,148.4c-6.8,2.3-8.5,2.8-13.2,10.1c-4.5,7.1-9.2,20.1-13.3,30.6
					c-7.5-2.1-20.4-9.1-25.5-12.4c-4-2.6-4.7-4.6-6.9-7.1c-2.2-2.6-6.2-8.2-7.1-4.7c-0.6,2.4,1.9,3.7,1.7,6.2
					c-0.1,1.4-8.3-3.8-11.6-6.1c-2.1-1.5-7.1,3.2-5.1,8.3c1.8,4.5,4.6,7.4,9.7,9.6c5.4,2.3,8.2,3.4,14.9,6.4
					c7,3.2,32.9,19.5,35.7,17.7c6.5-3.2,12.5-23.5,16.5-32.2C356.3,166.1,353.7,157.1,356.6,148.4z"/>
				<path id="XMLID_1406_" class="st1" d="M358.2,147.6c-2.9,3.9-1.7,2.3-2.6,8.2c-0.7,4.8-10.8,51-19.9,52.9
					c-4,0.8-29.7-15.9-36.7-19.8c2.4-3.5,4.7-7.8,5.5-12.2c4.2,2.3,19.6,10,24.9,11.6c2.4-6.7,5.4-13.6,8.1-20.4
					C342.8,155.1,345.7,146,358.2,147.6z"/>
			</g>
			<g id="XMLID_1399_">
				
					<rect id="XMLID_1405_" x="387.2" y="356.7" transform="matrix(1 -7.086154e-03 7.086154e-03 1 -2.5931 2.7934)" class="st30" width="11.4" height="21.2"/>
				<polygon id="XMLID_1404_" class="st30" points="356.4,364.3 344,364.8 343.8,343.4 357.9,342.8 				"/>
				<path id="XMLID_1403_" class="st31" d="M396.2,224.5c0.1,10.3,1.2,70.4,1.2,70.4c0.3,3,3.2,8.2,3.5,18.9
					c0.4,15.5-2.3,52.1-2.3,52.1s-4.6,3-11.4,0.2c0,0-8.9-51.6-11-66.9c-1.8-13.4-6.9-48.4-6.9-48.4l-7,45.6c0,0,1.3,7.3,0.7,16.5
					c-0.5,7.1-6.1,42.5-6.1,42.5s-5.6,2.7-13.1,0.2c0,0-2.4-55-2.6-61.5c-0.2-7.4,2.6-71.4,2.6-71.4L396.2,224.5z"/>
				<path id="XMLID_1402_" class="st31" d="M387.2,372.4l0-1.6c-0.6,0-1,0.6-1.2,2.1c-0.2,1-0.3,1.8-0.6,3.2c-0.5,2.1-1,3.4-1.9,5.8
					c-1.6,4-2.9,5.5-6.5,10.1c-0.9,1.1-2.8,2.9-3.5,4.1c-0.7,1.2-0.9,4.6,0.3,5.4c4.3,2.8,10.8,2.9,15.4,1.5
					c3.5-1.1,6.1-3.9,6.6-7.5c0.2-1,0.1-2.1,0.2-3.2c0.3-2.4,1.5-4.6,2.8-6.6c0.8-1.2,1.6-2.3,2.1-3.6c0.9-2.3,0.1-5-0.5-7.3
					c-0.5-2-1.1-4.2-1.8-4c0,0.2,0,1.2,0,1.2c-0.8,0.9-3.1,1.8-5.7,2C391.3,373.9,387.2,373.6,387.2,372.4z"/>
				<path id="XMLID_1401_" class="st31" d="M344,360.7c-0.6,0-1.3,1.2-2.7,2.8c-1.7,1.9-4.5,3.9-7.2,5.3c-4.6,2.4-13.6,6-17.7,7.9
					c-2.5,1.2-2.4,4.2,0.2,6s9,3,16.6,1.2c4.2-1,9.5-4.8,13-4.7c3.4,0.2,9.9,0.1,12.4-1.7s1.5-5.5,0.7-8.7c-0.8-3.5-1.5-9.4-2.6-9.1
					l-0.2,1.7c-1.5,2.3-11.6,2.8-12.5,0.7L344,360.7z"/>
				<path id="XMLID_1400_" d="M369.3,250.8c0,0-9.7-3.1-16.1-9.2c0,0,2.9,5.4,11.6,10.4l-1.8,40L369.3,250.8z"/>
			</g>
			<g id="XMLID_1394_">
				<path id="XMLID_1398_" class="st0" d="M377.6,147.4c2.3,0.6,9.1,1.1,13.2,2.3c3,0.9,2.9,4.6,3.5,7.3c2,8.7,2.3,27.1,2.3,27.1
					l0.1,47.7c-7.4,5.4-37.8,8.1-53.3-3.2c0,0,1.9-55.9,1.9-63.8s4.4-17.4,16.5-18.1L377.6,147.4z"/>
			</g>
			<g id="XMLID_347_">
				<g id="XMLID_1386_">
					<path id="XMLID_1393_" class="st31" d="M375,113.3c0,7.9-6.4,14.2-14.2,14.2c-7.9,0-14.2-6.4-14.2-14.2
						c0-7.9,6.4-14.2,14.2-14.2S375,105.5,375,113.3z"/>
					<path id="XMLID_1392_" class="st31" d="M385.3,123.5c0,0-2.3,10.8-3.2,12.6c-0.9,1.8-2.8,2.3-2.8,2.3l0.2-7.6L385.3,123.5z"/>
					<path id="XMLID_1391_" class="st31" d="M382.6,106.4c0,0,2.3-0.1,4.2,1.8c1.9,1.9,0.9,9.3-1.5,15.3L381,124L382.6,106.4z"/>
					<path id="XMLID_1390_" class="st30" d="M379.7,124c0.9,0.5,2.1-1.2,3.2-2.3c1.1-1.1,4.6-2.7,6.3,1c1.8,3.8-1.5,8.7-4.3,9.6
						c-4.8,1.5-5.5-1.6-5.5-1.6l-0.4,17.7l0,0c-3.3,4.2-10.7,9.2-14.7,8.5c-3.2-0.6-3.9-5.9-0.8-9.4l0-5.2c0,0-4.3,0.6-6.4,0.3
						c-3.5-0.5-5.7-3.3-6.8-7.1c-1.7-6.1-2.4-11-0.9-23c1.6-13.1,16.9-13.3,25.1-8.1C382.8,109.6,379.7,124,379.7,124z"/>
					<path id="XMLID_1389_" class="st31" d="M348.3,106.7c1.2,0.9,2.6,1.7,4,2.2c4.5,1.7,9.7,2.1,14.4,0.9c0.3-0.1,4.5-1.2,4.4-1.5
						c0.3,1.2,0.6,2.5,1.6,3.6c2,2,3.1,2.1,3.9,2.6c0.3,2.4,0.3,5.4,0.4,7.8c0,0.8,0,5,2,3.8c0.6-0.4,1.2-1.3,1.7-1.9
						c0.7-0.8,1.4-1.7,2.2-2.4c0.6-0.5,0.5-1.7,0.6-2.4c0.1-1.4,0-2.8-0.1-4.3c-0.1-1.5-0.4-2.9-0.5-4.4c-0.1-0.8,0.4-1.6,0.6-2.4
						c0.2-0.9,0.4-1.8,0.4-2.8c-0.2-2.9-2.4-5.4-5-6.7c-3.7-1.8-8.2-2.1-12.2-1.8c-3.3,0.3-6.4,0.3-9.7,0.2c-0.8,0-9.9-0.4-9.9-0.6
						c-0.2,2,0.2,4.1,1.3,5.8c-1,0-1.9,0.1-2.9,0.1c-0.4,0,0.7,2,0.8,2.1c0.5,0.7,1.1,1.3,1.8,1.8
						C348,106.5,348.1,106.6,348.3,106.7z"/>
					<path id="XMLID_1388_" class="st31" d="M383.4,107.9l5.3-2.8c-0.8-1.5-2.5-2.1-4-1.3C383.3,104.5,382.7,106.4,383.4,107.9z"/>
					<path id="XMLID_1387_" class="st32" d="M363.6,142.2c0,0,7.8-1.6,10.5-3c1.8-1,3.3-2.7,3.8-3.7c0,0-0.5,2.3-2.1,4.4
						c-2,2.6-12.2,4.4-12.2,4.4V142.2z"/>
				</g>
				<g id="XMLID_923_">
					<path id="XMLID_1384_" class="st31" d="M364.4,121.2c0,1,0.8,1.7,1.7,1.7s1.7-0.8,1.7-1.8c0-1-0.8-1.7-1.7-1.7
						C365.1,119.5,364.4,120.2,364.4,121.2z"/>
					<path id="XMLID_1383_" class="st31" d="M366.1,115.5l3.5,1.9c0.5-1,0.1-2.2-0.8-2.8C367.8,114.2,366.6,114.5,366.1,115.5z"/>
					<path id="XMLID_1382_" class="st32" d="M364.2,132.6l-3.9,1.4c0.4,1.1,1.6,1.7,2.6,1.3C364.1,134.9,364.6,133.7,364.2,132.6z"
						/>
					<path id="XMLID_1369_" class="st31" d="M350.5,116.9l3.2-2.4c-0.6-0.9-1.9-1.1-2.8-0.4C350.1,114.7,349.9,116,350.5,116.9z"/>
					<path id="XMLID_1014_" class="st31" d="M351.2,120.9c0,0.9,0.7,1.7,1.6,1.7c0.9,0,1.6-0.8,1.6-1.7s-0.7-1.7-1.6-1.7
						S351.2,120,351.2,120.9z"/>
					<polygon id="XMLID_924_" class="st32" points="359.9,119.6 359.4,129.8 354,127.9 					"/>
				</g>
				<g id="XMLID_595_">
					<path id="XMLID_922_" class="st8" d="M358,155.8c1,2.4,2.8,3.3,6.2,3.7c3.3,0.4,7.4-1.3,9.2-3.2l-4.1-4.1l-5.2,3.9l-0.5-4.4
						L358,155.8z"/>
					<path id="XMLID_921_" class="st15" d="M358,155.8c1,2.4,2.8,3.3,6.2,3.7c3.3,0.4,7.4-1.3,9.2-3.2l-4.1-4.1l-5.2,3.9l-0.5-4.4
						L358,155.8z"/>
					<g id="XMLID_912_">
						<path id="XMLID_920_" class="st8" d="M360.6,154.5c0,0-0.8,2.3-0.5,4.4c0.3,2.3,1.5,3.7,1.5,3.7s1.3,1.1,3.6,0.4
							c1.8-1.6,3.5-4.2,3.4-7.4l-4.5,0.5L360.6,154.5z"/>
						<path id="XMLID_918_" class="st2" d="M361.5,162.6c0,0-6.8,37.4-7,40.4c-0.3,3,3.9,13.7,6.5,13.8c2.6,0.1,7.6-9.6,7.7-12.4
							c0.1-2.7-3.2-41.8-3.2-41.8L361.5,162.6z"/>
						<path id="XMLID_917_" class="st15" d="M365.4,162.7c0,0-1.7,1.5-3.9-0.1l-0.1,0.6c0,0,1.3,1.3,4.1,0.5L365.4,162.7z"/>
					</g>
					<g id="XMLID_891_">
						<g id="XMLID_904_">
							<path id="XMLID_906_" class="st1" d="M364,156.1l15.2-11.6l0.1-3c0,0,3.5,0.9,4.3,7.2c-2.2,5-6.1,9.3-11.8,12.6l-3.2-5.7
								L364,156.1z"/>
							<path id="XMLID_905_" class="st1" d="M363.6,143c0,0-3.6,1.6-5.1,4.2c-1.5,2.5-1.5,10.6-1.5,10.6l3.6-3.3l3.4,1.6
								c-0.3-3.2-0.4-8.7-0.4-8.7L363.6,143z"/>
						</g>
					</g>
				</g>
			</g>
		</g>
		<g id="XMLID_992_">
			<path class="st30" d="M426.4,198c-6.3-10.8-16.3-30.3-21.4-37c-7.1-9.4-6.7-9.2-13.2-11.3c-1.1,3.2-3.5,16.2,1.2,25.6l16.4,23.3
				c-6.7,1.6-18.6,4.7-22.6,3.9l-1.3,12c23.8-2,34.7-2.3,41.5-6.7C429.9,205.9,428.4,201.3,426.4,198z"/>
			<path id="XMLID_1026_" class="st1" d="M393.8,177c-3.6-4.3-6.2-17.8-3.1-27.3c6.2,0.5,7.7,1.8,12.2,7.3
				c6.6,8.1,13.8,22.6,16.7,27.4c2.9,4.8,10,17.3,9.7,20c-0.3,2.7-2.5,5.3-8.3,6.9c-5.8,1.6-31.2,3.3-31.2,3.3s-1.2-5.2-1.1-12
				c7.6-1.5,14.6-2.9,19.1-4.2C407.8,198.3,397,180.8,393.8,177z"/>
			<path id="XMLID_1025_" class="st30" d="M387.8,202.7c-1.6-0.2-2.5-0.8-3.1-1.2c-1-0.7-2-1.5-3.1-2.2c-2.7-1.6-5.7-2.6-8.6-3.8
				c-0.3-0.1-0.6-0.2-0.9-0.2c-0.3,0.1-0.6,0.3-0.8,0.7c-0.1,0.3-0.2,0.7-0.2,1c-0.1,0.7,0.1,1.5,0,2.2
				C370.2,206.4,386.1,206.3,387.8,202.7z"/>
			<g>
				<path class="st2" d="M375.9,218.5L375.9,218.5l4.9-19.3l-5.8-1.5l-4.9,19.3c-0.2,0.4,0,1,0.5,1.5c1,0.9,2.8,1.4,4.1,1
					C375.4,219.4,375.8,219,375.9,218.5z"/>
				<path class="st27" d="M375.9,218.5L375.9,218.5l4.9-19.3l-5.8-1.5l-4.9,19.3c-0.2,0.4,0,1,0.5,1.5c1,0.9,2.8,1.4,4.1,1
					C375.4,219.4,375.8,219,375.9,218.5z"/>
				<path class="st2" d="M376.1,196.7c1.3-0.4,3.2,0.1,4.1,1s0.7,2-0.6,2.4s-3.2-0.1-4.1-1C374.5,198.2,374.8,197.1,376.1,196.7z"/>
				<path class="st33" d="M376.1,196.7c1.3-0.4,3.2,0.1,4.1,1s0.7,2-0.6,2.4s-3.2-0.1-4.1-1C374.5,198.2,374.8,197.1,376.1,196.7z"
					/>
			</g>
			<g id="XMLID_1003_">
				<g id="XMLID_1010_">
					<path id="XMLID_315_" class="st31" d="M376.3,198l33.5-130.7c0.2-0.9,1.1-1.4,2-1.2s1.4,1.2,1.2,2.1l-33.5,130.7
						C378.7,199.5,376.6,198.9,376.3,198z"/>
				</g>
			</g>
			<path id="XMLID_999_" class="st30" d="M387.8,202.8c-1.6,0.7-4.7,0-7.9-0.2c-2.6,1.8-5.8-0.3-5.9-1.4l-0.7-2.5c0,0-2.7-0.1-3.9,1
				s-0.5,2.8-1,3.5c-0.5,0.7-1.1,1.9-1.3,2.8c-0.2,0.9-1.3,2.6-1.2,3.4s0,2.8,0,2.8s1.6,3.7,6.3,4s13.1-1.6,13.1-1.6L387.8,202.8z"
				/>
		</g>
		<g id="XMLID_418_">
			<path id="XMLID_890_" class="st2" d="M404.7,93c18.5,1.4,35.1,7.9,50,19.4c15.1,2.6,24.4,9.2,29.8,18.6
				c-11.6-40.7-40.2-63.2-71.3-71.2s-67-2-96.8,27.9c9.2-5.6,20.6-6.8,35.1-1.9C370.1,82.9,387.9,85.3,404.7,93z"/>
			<path id="XMLID_763_" class="st3" d="M351.6,85.8c18.6-2.9,36.3-0.5,53.2,7.2l8.5-33.2C377.8,50.6,351.6,85.8,351.6,85.8z"/>
			<path id="XMLID_761_" class="st33" d="M316.5,87.6c29.8-30,65.7-35.9,96.8-27.9c-35.5-9.2-61.7,26.1-61.7,26.1
				C337.1,80.8,325.7,82.1,316.5,87.6z"/>
			<path id="XMLID_437_" class="st15" d="M454.7,112.3c-14.9-11.5-31.5-17.9-50-19.4l8.5-33.3C448.8,68.9,454.7,112.3,454.7,112.3z"
				/>
			<path id="XMLID_420_" class="st27" d="M484.6,130.9c-11.6-40.6-40.2-63.2-71.3-71.2c35.5,9.1,41.5,52.6,41.5,52.6
				C469.9,115,479.2,121.6,484.6,130.9z"/>
		</g>
	</g>
</g>
</svg>
